<svg width="22" height="22" viewBox="0 0 22 22" fill="none" xmlns="http://www.w3.org/2000/svg">
<path d="M11 21C16.5228 21 21 16.5228 21 11C21 5.47715 16.5228 1 11 1C5.47715 1 1 5.47715 1 11C1 16.5228 5.47715 21 11 21Z" stroke="url(#paint0_linear_973_83)" stroke-width="2" stroke-linecap="round" stroke-linejoin="round"/>
<path d="M11 17C14.3137 17 17 14.3137 17 11C17 7.68629 14.3137 5 11 5C7.68629 5 5 7.68629 5 11C5 14.3137 7.68629 17 11 17Z" stroke="url(#paint1_linear_973_83)" stroke-width="2" stroke-linecap="round" stroke-linejoin="round"/>
<path d="M11 13C12.1046 13 13 12.1046 13 11C13 9.89543 12.1046 9 11 9C9.89543 9 9 9.89543 9 11C9 12.1046 9.89543 13 11 13Z" stroke="url(#paint2_linear_973_83)" stroke-width="2" stroke-linecap="round" stroke-linejoin="round"/>
<defs>
<linearGradient id="paint0_linear_973_83" x1="-0.557292" y1="0.361111" x2="23.6923" y2="8.2379" gradientUnits="userSpaceOnUse">
<stop stop-color="#FFCC97"/>
<stop offset="1" stop-color="#D5D9C5"/>
</linearGradient>
<linearGradient id="paint1_linear_973_83" x1="-0.557292" y1="0.361111" x2="23.6923" y2="8.2379" gradientUnits="userSpaceOnUse">
<stop stop-color="#FFCC97"/>
<stop offset="1" stop-color="#D5D9C5"/>
</linearGradient>
<linearGradient id="paint2_linear_973_83" x1="-0.557292" y1="0.361111" x2="23.6923" y2="8.2379" gradientUnits="userSpaceOnUse">
<stop stop-color="#FFCC97"/>
<stop offset="1" stop-color="#D5D9C5"/>
</linearGradient>
</defs>
</svg>
